<mxfile host="app.diagrams.net" agent="Mozilla/5.0 (Windows NT 10.0; Win64; x64) AppleWebKit/537.36 (KHTML, like Gecko) Chrome/140.0.0.0 Safari/537.36 Edg/140.0.0.0" version="28.2.5">
  <diagram name="Trang-1" id="sj6R8hM3RuX7mH45mhPw">
    <mxGraphModel dx="892" dy="600" grid="1" gridSize="10" guides="1" tooltips="1" connect="1" arrows="1" fold="1" page="1" pageScale="1" pageWidth="827" pageHeight="1169" math="0" shadow="0">
      <root>
        <mxCell id="0" />
        <mxCell id="1" parent="0" />
        <mxCell id="kwj9SIugU13w1vflH6a5-10" style="edgeStyle=orthogonalEdgeStyle;rounded=0;orthogonalLoop=1;jettySize=auto;html=1;entryX=0.5;entryY=0;entryDx=0;entryDy=0;" edge="1" parent="1" source="kwj9SIugU13w1vflH6a5-1" target="kwj9SIugU13w1vflH6a5-2">
          <mxGeometry relative="1" as="geometry" />
        </mxCell>
        <mxCell id="kwj9SIugU13w1vflH6a5-1" value="0" style="ellipse;whiteSpace=wrap;html=1;aspect=fixed;" vertex="1" parent="1">
          <mxGeometry x="160" y="80" width="80" height="80" as="geometry" />
        </mxCell>
        <mxCell id="kwj9SIugU13w1vflH6a5-11" style="edgeStyle=orthogonalEdgeStyle;rounded=0;orthogonalLoop=1;jettySize=auto;html=1;entryX=0.5;entryY=0;entryDx=0;entryDy=0;" edge="1" parent="1" source="kwj9SIugU13w1vflH6a5-2" target="kwj9SIugU13w1vflH6a5-3">
          <mxGeometry relative="1" as="geometry" />
        </mxCell>
        <mxCell id="kwj9SIugU13w1vflH6a5-27" style="edgeStyle=orthogonalEdgeStyle;rounded=0;orthogonalLoop=1;jettySize=auto;html=1;entryX=0;entryY=0.5;entryDx=0;entryDy=0;" edge="1" parent="1" source="kwj9SIugU13w1vflH6a5-2" target="kwj9SIugU13w1vflH6a5-26">
          <mxGeometry relative="1" as="geometry" />
        </mxCell>
        <mxCell id="kwj9SIugU13w1vflH6a5-2" value="1" style="ellipse;whiteSpace=wrap;html=1;aspect=fixed;" vertex="1" parent="1">
          <mxGeometry x="160" y="200" width="80" height="80" as="geometry" />
        </mxCell>
        <mxCell id="kwj9SIugU13w1vflH6a5-12" style="edgeStyle=orthogonalEdgeStyle;rounded=0;orthogonalLoop=1;jettySize=auto;html=1;entryX=0.5;entryY=0;entryDx=0;entryDy=0;" edge="1" parent="1" source="kwj9SIugU13w1vflH6a5-3" target="kwj9SIugU13w1vflH6a5-5">
          <mxGeometry relative="1" as="geometry" />
        </mxCell>
        <mxCell id="kwj9SIugU13w1vflH6a5-3" value="2" style="ellipse;whiteSpace=wrap;html=1;aspect=fixed;" vertex="1" parent="1">
          <mxGeometry x="160" y="320" width="80" height="80" as="geometry" />
        </mxCell>
        <mxCell id="kwj9SIugU13w1vflH6a5-4" value="3" style="ellipse;whiteSpace=wrap;html=1;aspect=fixed;" vertex="1" parent="1">
          <mxGeometry x="40" y="410" width="80" height="80" as="geometry" />
        </mxCell>
        <mxCell id="kwj9SIugU13w1vflH6a5-5" value="4" style="ellipse;whiteSpace=wrap;html=1;aspect=fixed;" vertex="1" parent="1">
          <mxGeometry x="160" y="490" width="80" height="80" as="geometry" />
        </mxCell>
        <mxCell id="kwj9SIugU13w1vflH6a5-23" style="edgeStyle=orthogonalEdgeStyle;rounded=0;orthogonalLoop=1;jettySize=auto;html=1;entryX=0.5;entryY=0;entryDx=0;entryDy=0;" edge="1" parent="1" source="kwj9SIugU13w1vflH6a5-6" target="kwj9SIugU13w1vflH6a5-22">
          <mxGeometry relative="1" as="geometry" />
        </mxCell>
        <mxCell id="kwj9SIugU13w1vflH6a5-6" value="5" style="ellipse;whiteSpace=wrap;html=1;aspect=fixed;" vertex="1" parent="1">
          <mxGeometry x="40" y="590" width="80" height="80" as="geometry" />
        </mxCell>
        <mxCell id="kwj9SIugU13w1vflH6a5-7" value="6" style="ellipse;whiteSpace=wrap;html=1;aspect=fixed;" vertex="1" parent="1">
          <mxGeometry x="260" y="590" width="80" height="80" as="geometry" />
        </mxCell>
        <mxCell id="kwj9SIugU13w1vflH6a5-8" value="7" style="ellipse;whiteSpace=wrap;html=1;aspect=fixed;" vertex="1" parent="1">
          <mxGeometry x="180" y="700" width="80" height="80" as="geometry" />
        </mxCell>
        <mxCell id="kwj9SIugU13w1vflH6a5-9" value="8" style="ellipse;whiteSpace=wrap;html=1;aspect=fixed;" vertex="1" parent="1">
          <mxGeometry x="340" y="700" width="80" height="80" as="geometry" />
        </mxCell>
        <mxCell id="kwj9SIugU13w1vflH6a5-13" value="" style="endArrow=classic;html=1;rounded=0;entryX=1.003;entryY=0.41;entryDx=0;entryDy=0;entryPerimeter=0;exitX=0;exitY=0.5;exitDx=0;exitDy=0;" edge="1" parent="1" source="kwj9SIugU13w1vflH6a5-3" target="kwj9SIugU13w1vflH6a5-4">
          <mxGeometry width="50" height="50" relative="1" as="geometry">
            <mxPoint x="390" y="540" as="sourcePoint" />
            <mxPoint x="440" y="490" as="targetPoint" />
          </mxGeometry>
        </mxCell>
        <mxCell id="kwj9SIugU13w1vflH6a5-14" value="" style="endArrow=classic;html=1;rounded=0;entryX=0.023;entryY=0.42;entryDx=0;entryDy=0;entryPerimeter=0;exitX=0.5;exitY=1;exitDx=0;exitDy=0;" edge="1" parent="1" source="kwj9SIugU13w1vflH6a5-4" target="kwj9SIugU13w1vflH6a5-5">
          <mxGeometry width="50" height="50" relative="1" as="geometry">
            <mxPoint x="320" y="460" as="sourcePoint" />
            <mxPoint x="280" y="543" as="targetPoint" />
          </mxGeometry>
        </mxCell>
        <mxCell id="kwj9SIugU13w1vflH6a5-15" value="" style="endArrow=classic;html=1;rounded=0;entryX=0.5;entryY=0;entryDx=0;entryDy=0;exitX=0.5;exitY=1;exitDx=0;exitDy=0;" edge="1" parent="1" source="kwj9SIugU13w1vflH6a5-5" target="kwj9SIugU13w1vflH6a5-6">
          <mxGeometry width="50" height="50" relative="1" as="geometry">
            <mxPoint x="220" y="600" as="sourcePoint" />
            <mxPoint x="180" y="683" as="targetPoint" />
          </mxGeometry>
        </mxCell>
        <mxCell id="kwj9SIugU13w1vflH6a5-16" value="" style="endArrow=classic;html=1;rounded=0;entryX=0.373;entryY=0.01;entryDx=0;entryDy=0;entryPerimeter=0;exitX=0.5;exitY=1;exitDx=0;exitDy=0;" edge="1" parent="1" source="kwj9SIugU13w1vflH6a5-5" target="kwj9SIugU13w1vflH6a5-7">
          <mxGeometry width="50" height="50" relative="1" as="geometry">
            <mxPoint x="250" y="630" as="sourcePoint" />
            <mxPoint x="210" y="713" as="targetPoint" />
          </mxGeometry>
        </mxCell>
        <mxCell id="kwj9SIugU13w1vflH6a5-17" value="" style="endArrow=classic;html=1;rounded=0;entryX=0.5;entryY=0;entryDx=0;entryDy=0;exitX=0.5;exitY=1;exitDx=0;exitDy=0;" edge="1" parent="1" source="kwj9SIugU13w1vflH6a5-7" target="kwj9SIugU13w1vflH6a5-8">
          <mxGeometry width="50" height="50" relative="1" as="geometry">
            <mxPoint x="340" y="800" as="sourcePoint" />
            <mxPoint x="300" y="883" as="targetPoint" />
          </mxGeometry>
        </mxCell>
        <mxCell id="kwj9SIugU13w1vflH6a5-18" value="" style="endArrow=classic;html=1;rounded=0;entryX=0.5;entryY=0;entryDx=0;entryDy=0;exitX=0.5;exitY=1;exitDx=0;exitDy=0;" edge="1" parent="1" source="kwj9SIugU13w1vflH6a5-7" target="kwj9SIugU13w1vflH6a5-9">
          <mxGeometry width="50" height="50" relative="1" as="geometry">
            <mxPoint x="310" y="820" as="sourcePoint" />
            <mxPoint x="270" y="903" as="targetPoint" />
          </mxGeometry>
        </mxCell>
        <mxCell id="kwj9SIugU13w1vflH6a5-24" style="edgeStyle=orthogonalEdgeStyle;rounded=0;orthogonalLoop=1;jettySize=auto;html=1;" edge="1" parent="1" source="kwj9SIugU13w1vflH6a5-19">
          <mxGeometry relative="1" as="geometry">
            <mxPoint x="130" y="850" as="targetPoint" />
          </mxGeometry>
        </mxCell>
        <mxCell id="kwj9SIugU13w1vflH6a5-19" value="9" style="ellipse;whiteSpace=wrap;html=1;aspect=fixed;" vertex="1" parent="1">
          <mxGeometry x="260" y="810" width="80" height="80" as="geometry" />
        </mxCell>
        <mxCell id="kwj9SIugU13w1vflH6a5-20" value="" style="endArrow=classic;html=1;rounded=0;entryX=0.5;entryY=0;entryDx=0;entryDy=0;exitX=0.5;exitY=1;exitDx=0;exitDy=0;" edge="1" parent="1" source="kwj9SIugU13w1vflH6a5-8" target="kwj9SIugU13w1vflH6a5-19">
          <mxGeometry width="50" height="50" relative="1" as="geometry">
            <mxPoint x="320" y="770" as="sourcePoint" />
            <mxPoint x="280" y="853" as="targetPoint" />
          </mxGeometry>
        </mxCell>
        <mxCell id="kwj9SIugU13w1vflH6a5-21" value="" style="endArrow=classic;html=1;rounded=0;entryX=0.5;entryY=0;entryDx=0;entryDy=0;exitX=0.5;exitY=1;exitDx=0;exitDy=0;" edge="1" parent="1" source="kwj9SIugU13w1vflH6a5-9" target="kwj9SIugU13w1vflH6a5-19">
          <mxGeometry width="50" height="50" relative="1" as="geometry">
            <mxPoint x="420" y="830" as="sourcePoint" />
            <mxPoint x="380" y="913" as="targetPoint" />
          </mxGeometry>
        </mxCell>
        <mxCell id="kwj9SIugU13w1vflH6a5-25" style="edgeStyle=orthogonalEdgeStyle;rounded=0;orthogonalLoop=1;jettySize=auto;html=1;entryX=0;entryY=0.5;entryDx=0;entryDy=0;" edge="1" parent="1" source="kwj9SIugU13w1vflH6a5-22" target="kwj9SIugU13w1vflH6a5-2">
          <mxGeometry relative="1" as="geometry">
            <Array as="points">
              <mxPoint x="20" y="850" />
              <mxPoint x="20" y="240" />
            </Array>
          </mxGeometry>
        </mxCell>
        <mxCell id="kwj9SIugU13w1vflH6a5-22" value="10" style="ellipse;whiteSpace=wrap;html=1;aspect=fixed;" vertex="1" parent="1">
          <mxGeometry x="40" y="810" width="80" height="80" as="geometry" />
        </mxCell>
        <mxCell id="kwj9SIugU13w1vflH6a5-26" value="11" style="ellipse;whiteSpace=wrap;html=1;aspect=fixed;" vertex="1" parent="1">
          <mxGeometry x="334" y="200" width="80" height="80" as="geometry" />
        </mxCell>
        <mxCell id="kwj9SIugU13w1vflH6a5-28" value="" style="endArrow=classic;html=1;rounded=0;entryX=0.5;entryY=0;entryDx=0;entryDy=0;" edge="1" parent="1" target="kwj9SIugU13w1vflH6a5-1">
          <mxGeometry width="50" height="50" relative="1" as="geometry">
            <mxPoint x="200" y="20" as="sourcePoint" />
            <mxPoint x="390" y="70" as="targetPoint" />
          </mxGeometry>
        </mxCell>
        <mxCell id="kwj9SIugU13w1vflH6a5-29" value="while" style="text;whiteSpace=wrap;html=1;" vertex="1" parent="1">
          <mxGeometry x="180" y="210" width="60" height="40" as="geometry" />
        </mxCell>
        <mxCell id="kwj9SIugU13w1vflH6a5-30" value="a&amp;lt;3" style="text;whiteSpace=wrap;html=1;" vertex="1" parent="1">
          <mxGeometry x="210" y="280" width="50" height="40" as="geometry" />
        </mxCell>
        <mxCell id="kwj9SIugU13w1vflH6a5-31" value="if" style="text;whiteSpace=wrap;html=1;" vertex="1" parent="1">
          <mxGeometry x="190" y="330" width="40" height="40" as="geometry" />
        </mxCell>
        <mxCell id="kwj9SIugU13w1vflH6a5-32" value="(b&amp;lt;1)" style="text;whiteSpace=wrap;html=1;" vertex="1" parent="1">
          <mxGeometry x="110" y="380" width="60" height="40" as="geometry" />
        </mxCell>
        <mxCell id="kwj9SIugU13w1vflH6a5-33" value="c++" style="text;whiteSpace=wrap;html=1;" vertex="1" parent="1">
          <mxGeometry x="60" y="420" width="50" height="40" as="geometry" />
        </mxCell>
        <mxCell id="kwj9SIugU13w1vflH6a5-34" value="(b&amp;gt;=1)" style="text;whiteSpace=wrap;html=1;" vertex="1" parent="1">
          <mxGeometry x="210" y="435" width="60" height="30" as="geometry" />
        </mxCell>
        <mxCell id="kwj9SIugU13w1vflH6a5-35" value="if else" style="text;whiteSpace=wrap;html=1;" vertex="1" parent="1">
          <mxGeometry x="250" y="510" width="50" height="40" as="geometry" />
        </mxCell>
        <mxCell id="kwj9SIugU13w1vflH6a5-36" value="(a&amp;gt;b)" style="text;whiteSpace=wrap;html=1;" vertex="1" parent="1">
          <mxGeometry x="110" y="550" width="60" height="40" as="geometry" />
        </mxCell>
        <mxCell id="kwj9SIugU13w1vflH6a5-37" value="b=a" style="text;whiteSpace=wrap;html=1;" vertex="1" parent="1">
          <mxGeometry x="70" y="630" width="50" height="40" as="geometry" />
        </mxCell>
        <mxCell id="kwj9SIugU13w1vflH6a5-38" value="&lt;span style=&quot;color: rgb(0, 0, 0); font-family: Helvetica; font-size: 12px; font-style: normal; font-variant-ligatures: normal; font-variant-caps: normal; font-weight: 400; letter-spacing: normal; orphans: 2; text-align: left; text-indent: 0px; text-transform: none; widows: 2; word-spacing: 0px; -webkit-text-stroke-width: 0px; white-space: normal; background-color: rgb(236, 236, 236); text-decoration-thickness: initial; text-decoration-style: initial; text-decoration-color: initial; float: none; display: inline !important;&quot;&gt;(a&amp;lt;=b)&lt;/span&gt;" style="text;whiteSpace=wrap;html=1;" vertex="1" parent="1">
          <mxGeometry x="250" y="560" width="60" height="40" as="geometry" />
        </mxCell>
        <mxCell id="kwj9SIugU13w1vflH6a5-39" value="if else" style="text;whiteSpace=wrap;html=1;" vertex="1" parent="1">
          <mxGeometry x="349" y="620" width="50" height="40" as="geometry" />
        </mxCell>
        <mxCell id="kwj9SIugU13w1vflH6a5-40" value="(c==3" style="text;whiteSpace=wrap;html=1;" vertex="1" parent="1">
          <mxGeometry x="220" y="660" width="60" height="40" as="geometry" />
        </mxCell>
        <mxCell id="kwj9SIugU13w1vflH6a5-41" value="c++" style="text;whiteSpace=wrap;html=1;" vertex="1" parent="1">
          <mxGeometry x="200" y="740" width="50" height="40" as="geometry" />
        </mxCell>
        <mxCell id="kwj9SIugU13w1vflH6a5-42" value="a++" style="text;whiteSpace=wrap;html=1;" vertex="1" parent="1">
          <mxGeometry x="364" y="750" width="50" height="40" as="geometry" />
        </mxCell>
        <mxCell id="kwj9SIugU13w1vflH6a5-43" value="&lt;span style=&quot;color: rgb(0, 0, 0); font-family: Helvetica; font-size: 12px; font-style: normal; font-variant-ligatures: normal; font-variant-caps: normal; font-weight: 400; letter-spacing: normal; orphans: 2; text-align: left; text-indent: 0px; text-transform: none; widows: 2; word-spacing: 0px; -webkit-text-stroke-width: 0px; white-space: normal; background-color: rgb(236, 236, 236); text-decoration-thickness: initial; text-decoration-style: initial; text-decoration-color: initial; float: none; display: inline !important;&quot;&gt;(c!=3&lt;/span&gt;" style="text;whiteSpace=wrap;html=1;" vertex="1" parent="1">
          <mxGeometry x="360" y="670" width="60" height="40" as="geometry" />
        </mxCell>
        <mxCell id="kwj9SIugU13w1vflH6a5-44" value="a&amp;gt;=3" style="text;whiteSpace=wrap;html=1;" vertex="1" parent="1">
          <mxGeometry x="280" y="210" width="50" height="40" as="geometry" />
        </mxCell>
      </root>
    </mxGraphModel>
  </diagram>
</mxfile>
